<svg width="100%" height="100%" viewBox="0 0 438 88" fill="none" xmlns="http://www.w3.org/2000/svg">
<g filter="url(#filter0_d)">
<path d="M88.5875 54.1285C88.5441 61.1484 92.4718 66.3928 99.1317 66.4339C105.792 66.475 109.784 61.2795 109.827 54.2597C109.87 47.2398 105.943 41.9954 99.2829 41.9543C92.623 41.9132 88.6309 47.1087 88.5875 54.1285ZM90.0595 54.7856C89.632 48.2309 92.9377 43.4272 98.484 43.0654C104.066 42.7039 107.927 47.0838 108.355 53.6026C108.819 60.1575 105.477 64.961 99.9306 65.3228C94.3482 65.6843 90.4512 61.3042 90.0595 54.7856ZM124.759 53.5238C127.031 52.8538 128.985 51.3539 129.005 48.1499C129.038 42.75 124.576 42.4705 119.824 42.4411L111.688 42.3909L111.686 42.7509C113.27 42.7607 113.481 43.446 113.469 45.462L113.36 63.1016C113.347 65.1176 113.127 65.8003 111.543 65.7905L111.541 66.1505L120.397 66.2051C124.429 66.23 129.616 65.758 129.651 60.1061C129.676 55.9662 127.275 54.2234 124.759 53.5238ZM114.921 43.4909L120.177 43.5233C125.361 43.5553 127.588 44.3251 127.564 48.285C127.539 52.245 124.222 53.0165 119.758 52.9889L114.863 52.9587L114.921 43.4909ZM120.764 65.1274L114.788 65.0905L114.856 54.0387L120.472 54.0734C124.936 54.1009 128.237 55.7773 128.213 59.7373C128.188 63.6972 125.947 65.1594 120.764 65.1274ZM147.551 61.6927C146.992 64.8213 146.233 65.2846 144.217 65.2722L135.037 65.2155L135.102 54.7757L141.546 54.8155C143.562 54.8279 144.244 55.0481 144.234 56.6321L144.594 56.6343L144.623 51.9544L144.263 51.9522C144.254 53.5362 143.568 53.7479 141.552 53.7355L135.108 53.6957L135.171 43.6159L143.991 43.6704C146.006 43.6828 146.76 44.1555 147.28 47.2907L147.604 47.2567L146.947 42.9686L146.877 42.6082L131.937 42.5159L131.935 42.8759C133.519 42.8857 133.731 43.571 133.718 45.587L133.61 63.2266C133.597 65.2426 133.377 65.9253 131.793 65.9155L131.791 66.2755L147.09 66.3699L147.165 66.0104L147.875 61.7307L147.551 61.6927ZM165.797 61.8053C165.238 64.9339 164.479 65.3972 162.463 65.3848L153.283 65.3281L153.404 45.7085C153.417 43.6925 153.637 43.0099 155.221 43.0197L155.223 42.6597L150.183 42.6286L150.181 42.9886C151.765 42.9983 151.977 43.6837 151.964 45.6996L151.855 63.3393C151.843 65.3552 151.623 66.0379 150.039 66.0281L150.036 66.3881L165.336 66.4826L165.41 66.123L166.121 61.8433L165.797 61.8053ZM167.895 66.4984L172.935 66.5295L172.938 66.1695C171.354 66.1597 171.142 65.4744 171.154 63.4584L171.263 45.8188C171.276 43.8028 171.496 43.1201 173.08 43.1299L173.082 42.7699L168.042 42.7388L168.04 43.0988C169.624 43.1086 169.836 43.7939 169.823 45.8099L169.714 63.4495C169.702 65.4655 169.482 66.1481 167.898 66.1384L167.895 66.4984ZM176.081 48.0085C176.055 52.1485 180.008 53.2529 184.174 55.0066C187.872 56.5775 191.037 57.065 191.013 60.989C190.992 64.4449 188.355 65.9046 184.539 65.8811C179.931 65.8526 175.048 63.7345 176.957 57.7341L175.521 57.0053C173.601 64.8056 179.276 66.9286 184.46 66.9606C188.816 66.9875 192.426 65.2818 192.453 60.9979C192.48 56.5339 189.211 55.5417 184.183 53.5667C181.633 52.5789 177.499 51.4734 177.521 47.9814C177.539 44.9935 180.357 43.5348 183.956 43.5571C188.312 43.584 191.537 46.0879 189.819 50.2894L191.255 51.0183C193.164 44.9819 188.607 42.5058 183.999 42.4773C179.535 42.4498 176.104 44.2646 176.081 48.0085ZM209.474 60.9229C207.376 56.6259 206.209 53.3066 201.457 53.2773L201.458 53.1333L210.148 45.0868C211.632 43.7279 212.642 43.3742 214.55 43.3859L214.552 43.0259L207.245 42.9808L207.242 43.3408C210.41 43.3604 210.084 43.7184 208.6 45.0772L198.244 54.6615L198.298 45.9856C198.31 43.9697 198.531 43.287 200.115 43.2968L200.117 42.9368L195.077 42.9057L195.075 43.2657C196.659 43.2755 196.87 43.9608 196.858 45.9768L196.749 63.6164C196.736 65.6324 196.516 66.315 194.932 66.3053L194.93 66.6653L199.97 66.6964L199.972 66.3364C198.388 66.3266 198.176 65.6413 198.189 63.6253L198.235 56.1375L200.227 54.2777C205.95 54.3491 206.432 57.9521 208.352 61.888C210.165 65.6073 210.842 66.7635 214.802 66.7879L214.804 66.4279C211.996 66.4106 211.109 64.3171 209.474 60.9229ZM216.319 58.6031C216.276 65.471 222.08 67.1729 231.838 67.2331C240.643 67.2875 246.669 66.0326 246.708 59.6748C246.746 53.6569 240.935 53.111 231.554 52.5431C224.621 52.0923 223.195 51.7435 223.206 49.9075C223.217 48.1395 224.649 47.5703 230.667 47.6075C237.025 47.6467 239.639 48.3089 239.622 50.9268L245.742 50.9646C245.779 45.0827 240.353 42.8052 231.377 42.7498C222.469 42.6948 217.121 44.3278 217.088 49.5637C217.055 54.9016 221.159 56.559 231.526 57.099C239.242 57.5206 240.6 57.869 240.587 59.841C240.576 61.7109 238.633 62.413 232.208 62.3733C224.456 62.3254 222.423 61.1569 222.438 58.6409L216.319 58.6031ZM276.035 43.3655L246.795 43.185L246.763 48.3189L258.323 48.3902L258.208 67.0559L264.328 67.0937L264.443 48.428L276.003 48.4994L276.035 43.3655ZM308.092 55.4296L308.165 43.5638L302.045 43.5261L301.972 55.3918C301.952 58.6898 301.01 62.526 293.088 62.4771C285.166 62.4282 284.272 58.6146 284.293 55.2827L284.366 43.4169L278.246 43.3791L278.173 55.2449C278.121 63.5408 282.585 67.5464 293.057 67.611C303.494 67.6755 308.041 63.6915 308.092 55.4296ZM327.99 43.6862L310.718 43.5796L310.571 67.3791L327.843 67.4858C333.996 67.5238 339.426 63.7492 339.476 55.6574C339.526 47.5655 334.144 43.7242 327.99 43.6862ZM325.562 62.3376L316.723 62.283L316.806 48.7513L325.646 48.8058C330.27 48.8344 333.392 49.8397 333.356 55.6196C333.32 61.3995 330.186 62.3661 325.562 62.3376ZM347.882 43.809L341.762 43.7712L341.615 67.5708L347.735 67.6086L347.882 43.809ZM364.733 68.0535C375.171 68.1179 379.72 63.7599 379.768 55.8721C379.817 48.0182 375.322 43.6384 364.884 43.574C354.412 43.5093 349.898 47.7995 349.849 55.6874C349.8 63.6092 354.261 67.9889 364.733 68.0535ZM364.764 62.9196C358.407 62.8804 355.938 60.6211 355.969 55.7252C355.999 50.8633 358.46 48.6684 364.852 48.7079C371.244 48.7473 373.678 51.0064 373.648 55.8343C373.618 60.6962 371.122 62.9589 364.764 62.9196ZM381.202 59.621C381.16 66.4889 386.963 68.1907 396.721 68.251C405.527 68.3053 411.553 67.0505 411.592 60.6926C411.629 54.6748 405.818 54.1289 396.438 53.561C389.504 53.1101 388.079 52.7613 388.09 50.9254C388.101 49.1574 389.532 48.5882 395.55 48.6254C401.908 48.6646 404.522 49.3268 404.506 51.9447L410.626 51.9825C410.662 46.1006 405.236 43.8231 396.26 43.7677C387.352 43.7127 382.004 45.3457 381.972 50.5816C381.939 55.9195 386.043 57.5769 396.41 58.1169C404.125 58.5385 405.483 58.8869 405.471 60.8589C405.459 62.7288 403.517 63.4308 397.091 63.3912C389.339 63.3433 387.306 62.1747 387.322 59.6588L381.202 59.621Z" fill="#231F20"/>
</g>
<g filter="url(#filter1_d)">
<path d="M59.0426 0L4 80H87.468L59.0426 0ZM59.4319 13.0041L81.4322 73.18H17.1524L59.4319 13.0041Z" fill="#231F20"/>
<path d="M72.8945 67.1491H27.7449L58.1826 22.7559L72.8945 67.1491Z" fill="#231F20"/>
</g>
<defs>
<filter id="filter0_d" x="84.5872" y="41.9531" width="331.005" height="34.2985" filterUnits="userSpaceOnUse" color-interpolation-filters="sRGB">
<feFlood flood-opacity="0" result="BackgroundImageFix"/>
<feColorMatrix in="SourceAlpha" type="matrix" values="0 0 0 0 0 0 0 0 0 0 0 0 0 0 0 0 0 0 127 0"/>
<feOffset dy="4"/>
<feGaussianBlur stdDeviation="2"/>
<feColorMatrix type="matrix" values="0 0 0 0 0 0 0 0 0 0 0 0 0 0 0 0 0 0 0.25 0"/>
<feBlend mode="normal" in2="BackgroundImageFix" result="effect1_dropShadow"/>
<feBlend mode="normal" in="SourceGraphic" in2="effect1_dropShadow" result="shape"/>
</filter>
<filter id="filter1_d" x="0" y="0" width="91.468" height="88" filterUnits="userSpaceOnUse" color-interpolation-filters="sRGB">
<feFlood flood-opacity="0" result="BackgroundImageFix"/>
<feColorMatrix in="SourceAlpha" type="matrix" values="0 0 0 0 0 0 0 0 0 0 0 0 0 0 0 0 0 0 127 0"/>
<feOffset dy="4"/>
<feGaussianBlur stdDeviation="2"/>
<feColorMatrix type="matrix" values="0 0 0 0 0 0 0 0 0 0 0 0 0 0 0 0 0 0 0.25 0"/>
<feBlend mode="normal" in2="BackgroundImageFix" result="effect1_dropShadow"/>
<feBlend mode="normal" in="SourceGraphic" in2="effect1_dropShadow" result="shape"/>
</filter>
</defs>
</svg>
